# xmcd
# 
# Track frame offsets:
#     150
#     24213
#     40728
#     59909
# 
# Disc length: 1019
# 
# Revision: 0
# Processed by: cddbd v1.5.2PL0 Copyright (c) Steve Scherf et al.
# Submitted via: fre:ac v1.0.17
# 
DISCID=2d03f904
DTITLE=Possession - His Best Deceit
DYEAR=2013
DGENRE=Black/Death
TTITLE0=Intro - Possession 
TTITLE1=The Truth of Cain 
TTITLE2=His Best Deceit
TTITLE3=Necromancer (Sepultura cover) 
EXTD=
EXTT0=
EXTT1=
EXTT2=
EXTT3=
PLAYORDER=
